<?xml version="1.0" encoding="utf-8"?>
<!-- Generator: Adobe Illustrator 24.1.1, SVG Export Plug-In . SVG Version: 6.00 Build 0)  -->
<svg version="1.1" id="Слой_1" xmlns="http://www.w3.org/2000/svg" xmlns:xlink="http://www.w3.org/1999/xlink" x="0px" y="0px"
	 viewBox="0 0 18 12" style="enable-background:new 0 0 18 12;" xml:space="preserve">
<style type="text/css">
	.st0{fill:#FFFFFF;}
</style>
<path class="st0" d="M8.3,1l-8,8C0.1,9.2,0,9.4,0,9.7c0,0.3,0.1,0.5,0.3,0.7L0.9,11c0.4,0.4,1,0.4,1.4,0L9,4.3l6.7,6.7
	c0.2,0.2,0.4,0.3,0.7,0.3c0.3,0,0.5-0.1,0.7-0.3l0.6-0.6C17.9,10.2,18,10,18,9.7c0-0.3-0.1-0.5-0.3-0.7l-8-8C9.5,0.8,9.3,0.7,9,0.7
	C8.7,0.7,8.5,0.8,8.3,1z"/>
</svg>
